<?xml version="1.0" encoding="utf-8"?>
<!-- Generator: Adobe Illustrator 24.0.1, SVG Export Plug-In . SVG Version: 6.00 Build 0)  -->
<svg version="1.1" id="圖層_1" xmlns="http://www.w3.org/2000/svg" xmlns:xlink="http://www.w3.org/1999/xlink" x="0px" y="0px"
	 viewBox="0 0 244 80" style="enable-background:new 0 0 244 80;" xml:space="preserve">
<style type="text/css">
	.st0{fill:url(#SVGID_1_);}
	.st1{fill:url(#SVGID_2_);}
	.st2{fill:url(#SVGID_3_);}
	.st3{display:none;}
	.st4{display:inline;fill:url(#SVGID_4_);}
	.st5{display:inline;fill:url(#SVGID_5_);}
	.st6{display:inline;fill:url(#SVGID_6_);}
	.st7{display:inline;fill:url(#SVGID_7_);}
	.st8{display:inline;fill:url(#SVGID_8_);}
	.st9{display:inline;}
	.st10{fill:url(#SVGID_9_);}
	.st11{display:inline;fill:url(#SVGID_10_);}
	.st12{display:inline;fill:url(#SVGID_11_);}
	.st13{fill:url(#SVGID_12_);}
	.st14{display:inline;fill:url(#SVGID_13_);}
	.st15{display:inline;fill:url(#SVGID_14_);}
	.st16{display:inline;fill:url(#SVGID_15_);}
	.st17{display:inline;fill:url(#SVGID_16_);}
	.st18{display:inline;fill:url(#SVGID_17_);}
	.st19{display:inline;fill:url(#SVGID_18_);}
	.st20{display:inline;fill:url(#SVGID_19_);}
	.st21{display:inline;fill:url(#SVGID_20_);}
	.st22{display:inline;fill:url(#SVGID_21_);}
</style>
<g>
	<linearGradient id="SVGID_1_" gradientUnits="userSpaceOnUse" x1="4.6856" y1="11.5928" x2="33.6972" y2="11.5928">
		<stop  offset="0" style="stop-color:#A2D6FF"/>
		<stop  offset="1" style="stop-color:#6A18FF"/>
	</linearGradient>
	<path class="st0" d="M12.4,5.6c-3.3,0-4.8,4-7.7,12.1h29V5.6H12.4C12.4,5.6,20.9,5.6,12.4,5.6z"/>
	
		<linearGradient id="SVGID_2_" gradientUnits="userSpaceOnUse" x1="40.2683" y1="11.5928" x2="69.2799" y2="11.5928" gradientTransform="matrix(-1 0 0 1 279.5827 0)">
		<stop  offset="0" style="stop-color:#A2D6FF"/>
		<stop  offset="1" style="stop-color:#6A00FF"/>
	</linearGradient>
	<path class="st1" d="M231.6,5.6c3.3,0,4.8,4,7.7,12.1h-29V5.6H231.6C231.6,5.6,223.1,5.6,231.6,5.6z"/>
	<g>
		<linearGradient id="SVGID_3_" gradientUnits="userSpaceOnUse" x1="122.2532" y1="76.4485" x2="122.2532" y2="5.5515">
			<stop  offset="0" style="stop-color:#9FD3FF"/>
			<stop  offset="4.341484e-02" style="stop-color:#90C5FF"/>
			<stop  offset="0.1205" style="stop-color:#7DB3FF"/>
			<stop  offset="0.1983" style="stop-color:#71A8FF"/>
			<stop  offset="0.2774" style="stop-color:#6DA4FF"/>
			<stop  offset="0.5654" style="stop-color:#71A8FF"/>
			<stop  offset="0.7527" style="stop-color:#78AFFF"/>
			<stop  offset="0.9944" style="stop-color:#A1D6FF"/>
		</linearGradient>
		<path class="st2" d="M232.1,5.6c-7.4,0-6,30-6.8,48.8c-0.2,4.1-5.7,5.9-11.6,7.3c-12.6,3-71.2,14.8-91.8,14.8
			c-21.4,0-78.4-11.8-91.3-14.8c-5.9-1.4-11.4-3.2-11.6-7.3c-0.8-18.8,0.6-48.8-6.8-48.8H232.1z"/>
	</g>
</g>
<g class="st3">
	<linearGradient id="SVGID_4_" gradientUnits="userSpaceOnUse" x1="4.6856" y1="11.5928" x2="33.6972" y2="11.5928">
		<stop  offset="0" style="stop-color:#F2BB35"/>
		<stop  offset="1" style="stop-color:#4F8D4B"/>
	</linearGradient>
	<path class="st4" d="M12.4,5.6c-3.3,0-4.8,4-7.7,12.1h29V5.6H12.4C12.4,5.6,20.9,5.6,12.4,5.6z"/>
	
		<linearGradient id="SVGID_5_" gradientUnits="userSpaceOnUse" x1="40.2683" y1="11.5928" x2="69.2799" y2="11.5928" gradientTransform="matrix(-1 0 0 1 279.5827 0)">
		<stop  offset="0" style="stop-color:#FAE460"/>
		<stop  offset="1" style="stop-color:#510009"/>
	</linearGradient>
	<path class="st5" d="M231.6,5.6c3.3,0,4.8,4,7.7,12.1h-29V5.6H231.6C231.6,5.6,223.1,5.6,231.6,5.6z"/>
	<linearGradient id="SVGID_6_" gradientUnits="userSpaceOnUse" x1="122.2532" y1="76.4485" x2="122.2532" y2="5.5515">
		<stop  offset="0" style="stop-color:#F8DA56"/>
		<stop  offset="2.101361e-02" style="stop-color:#F6D14C"/>
		<stop  offset="8.965791e-02" style="stop-color:#F1B730"/>
		<stop  offset="0.159" style="stop-color:#EEA41D"/>
		<stop  offset="0.2288" style="stop-color:#EC9911"/>
		<stop  offset="0.2998" style="stop-color:#EB950D"/>
		<stop  offset="0.5517" style="stop-color:#EC9911"/>
		<stop  offset="0.7527" style="stop-color:#EDA21A"/>
		<stop  offset="1" style="stop-color:#FAE35F"/>
	</linearGradient>
	<path class="st6" d="M232.1,5.6c-7.4,0-6,30-6.8,48.8c-0.2,4.1-5.7,5.9-11.6,7.3c-12.6,3-71.2,14.8-91.8,14.8
		c-21.4,0-78.4-11.8-91.3-14.8c-5.9-1.4-11.4-3.2-11.6-7.3c-0.8-18.8,0.6-48.8-6.8-48.8H232.1z"/>
</g>
<g class="st3">
	<linearGradient id="SVGID_7_" gradientUnits="userSpaceOnUse" x1="4.6856" y1="11.5928" x2="33.6972" y2="11.5928">
		<stop  offset="0" style="stop-color:#91DE4D"/>
		<stop  offset="1" style="stop-color:#213137"/>
	</linearGradient>
	<path class="st7" d="M12.4,5.6c-3.3,0-4.8,4-7.7,12.1h29V5.6H12.4C12.4,5.6,20.9,5.6,12.4,5.6z"/>
	
		<linearGradient id="SVGID_8_" gradientUnits="userSpaceOnUse" x1="40.2683" y1="11.5928" x2="69.2799" y2="11.5928" gradientTransform="matrix(-1 0 0 1 279.5827 0)">
		<stop  offset="0" style="stop-color:#91DE4D"/>
		<stop  offset="1" style="stop-color:#322337"/>
	</linearGradient>
	<path class="st8" d="M231.6,5.6c3.3,0,4.8,4,7.7,12.1h-29V5.6H231.6C231.6,5.6,223.1,5.6,231.6,5.6z"/>
	<g class="st9">
		<linearGradient id="SVGID_9_" gradientUnits="userSpaceOnUse" x1="122.2532" y1="76.4485" x2="122.2532" y2="5.5515">
			<stop  offset="0" style="stop-color:#8FDA4B"/>
			<stop  offset="9.524191e-03" style="stop-color:#8ED74A"/>
			<stop  offset="9.773555e-02" style="stop-color:#86C442"/>
			<stop  offset="0.1868" style="stop-color:#82B83E"/>
			<stop  offset="0.2774" style="stop-color:#80B43C"/>
			<stop  offset="0.5528" style="stop-color:#7EB03B"/>
			<stop  offset="0.7527" style="stop-color:#7BA838"/>
			<stop  offset="1" style="stop-color:#90DC4C"/>
		</linearGradient>
		<path class="st10" d="M232.1,5.6c-7.4,0-6,30-6.8,48.8c-0.2,4.1-5.7,5.9-11.6,7.3c-12.6,3-71.2,14.8-91.8,14.8
			c-21.4,0-78.4-11.8-91.3-14.8c-5.9-1.4-11.4-3.2-11.6-7.3c-0.8-18.8,0.6-48.8-6.8-48.8H232.1z"/>
	</g>
</g>
<g class="st3">
	<linearGradient id="SVGID_10_" gradientUnits="userSpaceOnUse" x1="4.6856" y1="11.5928" x2="33.6972" y2="11.5928">
		<stop  offset="0" style="stop-color:#8DE6F8"/>
		<stop  offset="1" style="stop-color:#006CDC"/>
	</linearGradient>
	<path class="st11" d="M12.4,5.6c-3.3,0-4.8,4-7.7,12.1h29V5.6H12.4C12.4,5.6,20.9,5.6,12.4,5.6z"/>
	
		<linearGradient id="SVGID_11_" gradientUnits="userSpaceOnUse" x1="40.2683" y1="11.5928" x2="69.2799" y2="11.5928" gradientTransform="matrix(-1 0 0 1 279.5827 0)">
		<stop  offset="0" style="stop-color:#8DE6F8"/>
		<stop  offset="1" style="stop-color:#005EDD"/>
	</linearGradient>
	<path class="st12" d="M231.6,5.6c3.3,0,4.8,4,7.7,12.1h-29V5.6H231.6C231.6,5.6,223.1,5.6,231.6,5.6z"/>
	<g class="st9">
		<linearGradient id="SVGID_12_" gradientUnits="userSpaceOnUse" x1="122.2532" y1="76.4485" x2="122.2532" y2="5.5515">
			<stop  offset="0" style="stop-color:#8BE4F7"/>
			<stop  offset="1.695668e-02" style="stop-color:#7EDFF4"/>
			<stop  offset="6.812167e-02" style="stop-color:#5AD2EB"/>
			<stop  offset="0.1199" style="stop-color:#3FC8E5"/>
			<stop  offset="0.1719" style="stop-color:#2BC1E0"/>
			<stop  offset="0.2242" style="stop-color:#1FBCDD"/>
			<stop  offset="0.2774" style="stop-color:#1BBBDC"/>
			<stop  offset="0.3826" style="stop-color:#1FBCDC"/>
			<stop  offset="0.4909" style="stop-color:#2BBEDC"/>
			<stop  offset="0.6005" style="stop-color:#40C2DC"/>
			<stop  offset="0.7105" style="stop-color:#5DC8DC"/>
			<stop  offset="0.7471" style="stop-color:#68CADC"/>
			<stop  offset="1" style="stop-color:#8DE6F8"/>
		</linearGradient>
		<path class="st13" d="M232.1,5.6c-7.4,0-6,30-6.8,48.8c-0.2,4.1-5.7,5.9-11.6,7.3c-12.6,3-71.2,14.8-91.8,14.8
			c-21.4,0-78.4-11.8-91.3-14.8c-5.9-1.4-11.4-3.2-11.6-7.3c-0.8-18.8,0.6-48.8-6.8-48.8H232.1z"/>
	</g>
</g>
<g class="st3">
	<linearGradient id="SVGID_13_" gradientUnits="userSpaceOnUse" x1="4.6856" y1="11.5928" x2="33.6972" y2="11.5928">
		<stop  offset="0" style="stop-color:#FFB1AF"/>
		<stop  offset="1" style="stop-color:#004922"/>
	</linearGradient>
	<path class="st14" d="M12.4,5.6c-3.3,0-4.8,4-7.7,12.1h29V5.6H12.4C12.4,5.6,20.9,5.6,12.4,5.6z"/>
	
		<linearGradient id="SVGID_14_" gradientUnits="userSpaceOnUse" x1="40.2683" y1="11.5928" x2="69.2799" y2="11.5928" gradientTransform="matrix(-1 0 0 1 279.5827 0)">
		<stop  offset="0" style="stop-color:#FEB3AF"/>
		<stop  offset="1" style="stop-color:#00520A"/>
	</linearGradient>
	<path class="st15" d="M231.6,5.6c3.3,0,4.8,4,7.7,12.1h-29V5.6H231.6C231.6,5.6,223.1,5.6,231.6,5.6z"/>
	<linearGradient id="SVGID_15_" gradientUnits="userSpaceOnUse" x1="122.2532" y1="76.4485" x2="122.2532" y2="5.5515">
		<stop  offset="0" style="stop-color:#FEB6B3"/>
		<stop  offset="2.117158e-02" style="stop-color:#FBABAA"/>
		<stop  offset="8.428334e-02" style="stop-color:#F38F94"/>
		<stop  offset="0.148" style="stop-color:#ED7C85"/>
		<stop  offset="0.2122" style="stop-color:#EA707B"/>
		<stop  offset="0.2774" style="stop-color:#E96C78"/>
		<stop  offset="0.4795" style="stop-color:#ED6C78"/>
		<stop  offset="0.6871" style="stop-color:#F96D79"/>
		<stop  offset="0.7527" style="stop-color:#FF6E7A"/>
		<stop  offset="1" style="stop-color:#FDB2B1"/>
	</linearGradient>
	<path class="st16" d="M232.1,5.6c-7.4,0-6,30-6.8,48.8c-0.2,4.1-5.7,5.9-11.6,7.3c-12.6,3-71.2,14.8-91.8,14.8
		c-21.4,0-78.4-11.8-91.3-14.8c-5.9-1.4-11.4-3.2-11.6-7.3c-0.8-18.8,0.6-48.8-6.8-48.8H232.1z"/>
</g>
<g class="st3">
	<linearGradient id="SVGID_16_" gradientUnits="userSpaceOnUse" x1="4.6856" y1="11.5928" x2="33.6972" y2="11.5928">
		<stop  offset="0" style="stop-color:#FDDEC1"/>
		<stop  offset="1" style="stop-color:#2E832A"/>
	</linearGradient>
	<path class="st17" d="M12.4,5.6c-3.3,0-4.8,4-7.7,12.1h29V5.6H12.4C12.4,5.6,20.9,5.6,12.4,5.6z"/>
	
		<linearGradient id="SVGID_17_" gradientUnits="userSpaceOnUse" x1="40.2683" y1="11.5928" x2="69.2799" y2="11.5928" gradientTransform="matrix(-1 0 0 1 279.5827 0)">
		<stop  offset="0" style="stop-color:#FDDEC1"/>
		<stop  offset="0.9944" style="stop-color:#00BD0C"/>
	</linearGradient>
	<path class="st18" d="M231.6,5.6c3.3,0,4.8,4,7.7,12.1h-29V5.6H231.6C231.6,5.6,223.1,5.6,231.6,5.6z"/>
	<linearGradient id="SVGID_18_" gradientUnits="userSpaceOnUse" x1="122.2532" y1="76.4485" x2="122.2532" y2="5.5515">
		<stop  offset="0" style="stop-color:#FDDEC1"/>
		<stop  offset="4.106950e-02" style="stop-color:#F7D2B3"/>
		<stop  offset="0.1189" style="stop-color:#EDBFA0"/>
		<stop  offset="0.1975" style="stop-color:#E8B594"/>
		<stop  offset="0.2774" style="stop-color:#E6B190"/>
		<stop  offset="0.532" style="stop-color:#E2B58F"/>
		<stop  offset="0.7527" style="stop-color:#D9BF8C"/>
		<stop  offset="1" style="stop-color:#FDDEC1"/>
	</linearGradient>
	<path class="st19" d="M232.1,5.6c-7.4,0-6,30-6.8,48.8c-0.2,4.1-5.7,5.9-11.6,7.3c-12.6,3-71.2,14.8-91.8,14.8
		c-21.4,0-78.4-11.8-91.3-14.8c-5.9-1.4-11.4-3.2-11.6-7.3c-0.8-18.8,0.6-48.8-6.8-48.8H232.1z"/>
</g>
<g class="st3">
	<linearGradient id="SVGID_19_" gradientUnits="userSpaceOnUse" x1="4.6856" y1="12.5928" x2="33.6972" y2="12.5928">
		<stop  offset="0" style="stop-color:#D2D2D0"/>
		<stop  offset="1" style="stop-color:#000007"/>
	</linearGradient>
	<path class="st20" d="M12.4,6.6c-3.3,0-4.8,4-7.7,12.1h29V6.6H12.4C12.4,6.6,20.9,6.6,12.4,6.6z"/>
	
		<linearGradient id="SVGID_20_" gradientUnits="userSpaceOnUse" x1="40.2683" y1="12.5928" x2="69.2799" y2="12.5928" gradientTransform="matrix(-1 0 0 1 279.5827 0)">
		<stop  offset="0" style="stop-color:#D0D0CF"/>
		<stop  offset="1" style="stop-color:#000000"/>
	</linearGradient>
	<path class="st21" d="M231.6,6.6c3.3,0,4.8,4,7.7,12.1h-29V6.6H231.6C231.6,6.6,223.1,6.6,231.6,6.6z"/>
	<linearGradient id="SVGID_21_" gradientUnits="userSpaceOnUse" x1="122.2532" y1="77.4485" x2="122.2532" y2="6.5515">
		<stop  offset="0" style="stop-color:#D2D2D0"/>
		<stop  offset="2.306763e-03" style="stop-color:#D1D1CF"/>
		<stop  offset="9.288685e-02" style="stop-color:#BEBEBD"/>
		<stop  offset="0.1844" style="stop-color:#B2B2B2"/>
		<stop  offset="0.2774" style="stop-color:#AEAEAE"/>
		<stop  offset="0.4175" style="stop-color:#AAAAAA"/>
		<stop  offset="0.5617" style="stop-color:#9E9E9E"/>
		<stop  offset="0.7073" style="stop-color:#898B8A"/>
		<stop  offset="0.7192" style="stop-color:#878988"/>
		<stop  offset="1" style="stop-color:#D2D2D0"/>
	</linearGradient>
	<path class="st22" d="M232.1,6.6c-7.4,0-6,30-6.8,48.8c-0.2,4.1-5.7,5.9-11.6,7.3c-12.6,3-71.2,14.8-91.8,14.8
		c-21.4,0-78.4-11.8-91.3-14.8c-5.9-1.4-11.4-3.2-11.6-7.3c-0.8-18.8,0.6-48.8-6.8-48.8H232.1z"/>
</g>
</svg>
